<?xml version="1.0" encoding="UTF-8"?>
<svg width="1161px" height="340px" viewBox="0 0 1161 340" version="1.1" xmlns="http://www.w3.org/2000/svg" xmlns:xlink="http://www.w3.org/1999/xlink">
    <!-- Generator: Sketch 44.1 (41455) - http://www.bohemiancoding.com/sketch -->
    <title>Group</title>
    <desc>Created with Sketch.</desc>
    <defs>
        <polygon id="path-1" points="63.7782636 280.27327 63.7782636 0.911363514 0.0437664374 0.911363514 0.0437664374 280.27327"></polygon>
    </defs>
    <g id="Page-1" stroke="none" stroke-width="1" fill="none" fill-rule="evenodd">
        <g id="Contacto-desplegable" transform="translate(-102.000000, -1119.000000)">
            <g id="Group" transform="translate(102.000000, 1119.000000)">
                <path d="M97.2973179,269.165186 C97.2973179,277.409388 93.3863663,281.288761 85.0728992,281.288761 L67.960869,281.288761 L67.960869,195.448544 L85.0728992,195.448544 C93.3863663,195.448544 97.2973179,199.325779 97.2973179,207.574258 L97.2973179,269.165186 Z M67.960869,58.1970111 L84.0940833,58.1970111 C92.4053945,58.1970111 96.3141901,62.0763841 96.3141901,70.3205864 L96.3141901,126.58005 C96.3141901,134.824252 92.4053945,138.705763 84.0940833,138.705763 L67.960869,138.705763 L67.960869,58.1970111 Z M135.923894,163.923827 C154.016896,157.131716 164.283683,142.585137 164.283683,113.485562 L164.283683,63.0472966 C164.283683,20.8489568 143.256389,0 100.718862,0 L0,0 L0,339.492188 L101.697677,339.492188 C144.235205,339.492188 165.258187,318.636816 165.258187,276.440614 L165.258187,207.574258 C165.258187,182.835236 156.455312,169.742886 135.923894,163.923827 L135.923894,163.923827 Z" id="Fill-1" fill="#000000"></path>
                <path d="M295.320658,126.582188 C295.320658,134.828529 291.409706,138.707902 283.098395,138.707902 L266.963025,138.707902 L266.963025,58.1991497 L283.098395,58.1991497 C291.409706,58.1991497 295.320658,62.0806613 295.320658,70.322725 L295.320658,126.582188 Z M334.923894,163.925965 C353.01474,157.135993 363.283683,142.585137 363.283683,113.4877 L363.283683,63.0472966 C363.283683,20.8553725 342.258545,0 299.721018,0 L199,0 L199,339.494327 L266.963025,339.494327 L266.963025,281.293039 L266.963025,212.086649 L266.963025,195.452821 L284.077211,195.452821 C292.388522,195.452821 296.299474,199.330056 296.299474,207.576397 L296.299474,212.086649 L296.299474,269.169463 L296.299474,339.494327 L300.699833,339.494327 L364.260343,339.494327 L364.260343,276.444892 L364.260343,212.086649 L364.260343,207.576397 C364.260343,182.84379 355.46178,169.749302 334.923894,163.925965 L334.923894,163.925965 Z" id="Fill-3" fill="#000000"></path>
                <polygon id="Fill-5" fill="#000000" points="744.569856 0 593 0 593 58.1991497 634.560868 58.1991497 634.560868 339.492188 703.011145 339.492188 703.011145 58.1991497 744.569856 58.1991497"></polygon>
                <path d="M818.139914,223.096027 L832.500911,58.2012882 L846.864064,223.096027 L818.139914,223.096027 Z M788.986723,0 L744,339.494327 L806.098754,339.494327 L811.850914,281.295177 L853.064668,281.295177 L859.394632,339.494327 L927.357657,339.494327 L882.375246,0 L788.986723,0 Z" id="Fill-7" fill="#000000"></path>
                <polygon id="Fill-9" fill="#000000" points="1022.45243 281.293039 1022.45243 0 954 0 954 339.494327 1071.83305 339.494327 1071.83305 281.293039"></polygon>
                <path d="M498.23161,269.043287 C498.23161,277.285351 494.320658,281.166863 486.007191,281.166863 L478.674696,281.166863 C470.363385,281.166863 466.450277,277.285351 466.450277,269.043287 L466.450277,0 L398,0 L398,276.318716 C398,318.512778 419.025138,339.366012 461.562665,339.366012 L503.121377,339.366012 C545.661061,339.366012 566.684043,318.512778 566.684043,276.318716 L566.684043,0 L498.23161,0 L498.23161,269.043287 Z" id="Fill-11" fill="#000000"></path>
                <g id="Group-15" transform="translate(1097.000000, 1.000000)">
                    <mask id="mask-2" fill="white">
                        <use xlink:href="#path-1"></use>
                    </mask>
                    <g id="Clip-14"></g>
                    <path d="M9.60339124,190.181568 L4.02586545,0.911363514 L58.6023973,0.911363514 L52.6260148,190.181568 L9.60339124,190.181568 Z M32.3101951,280.27327 C22.7505703,280.27327 14.9804107,277.377641 9.00618419,271.582106 C3.02764572,265.788709 0.0437664374,258.806265 0.0437664374,250.639052 C0.0437664374,242.210932 3.02764572,235.098035 9.00618419,229.300361 C14.9804107,223.509103 22.7505703,220.609197 32.3101951,220.609197 C41.3329804,220.609197 48.8401102,223.509103 54.8164927,229.300361 C60.7907192,235.098035 63.7789104,242.210932 63.7789104,250.639052 C63.7789104,258.806265 60.7907192,265.788709 54.8164927,271.582106 C48.8401102,277.377641 41.3329804,280.27327 32.3101951,280.27327 L32.3101951,280.27327 Z" id="Fill-13" fill="#C1FC13" mask="url(#mask-2)"></path>
                </g>
            </g>
        </g>
    </g>
</svg>