<?xml version="1.0" encoding="UTF-8"?>
<svg width="167px" height="49px" viewBox="0 0 167 49" version="1.1" xmlns="http://www.w3.org/2000/svg" xmlns:xlink="http://www.w3.org/1999/xlink">
    <!-- Generator: Sketch 44.1 (41455) - http://www.bohemiancoding.com/sketch -->
    <title>Page 1</title>
    <desc>Created with Sketch.</desc>
    <defs>
        <polygon id="path-1" points="9.14718615 40.3037556 9.14718615 0.298318125 0.00627705628 0.298318125 0.00627705628 40.3037556"></polygon>
    </defs>
    <g id="Page-1" stroke="none" stroke-width="1" fill="none" fill-rule="evenodd">
        <g id="Home-2" transform="translate(-102.000000, -48.000000)">
            <g id="Page-1" transform="translate(102.000000, 48.000000)">
                <g>
                    <path d="M13.9545764,38.86092 C13.9545764,40.0415138 13.3936611,40.5970513 12.2013296,40.5970513 L9.74709338,40.5970513 L9.74709338,28.3044825 L12.2013296,28.3044825 C13.3936611,28.3044825 13.9545764,28.8597137 13.9545764,30.04092 L13.9545764,38.86092 Z M9.74709338,8.64966375 L12.0609462,8.64966375 C13.2529685,8.64966375 13.8135745,9.20520125 13.8135745,10.385795 L13.8135745,18.4423137 C13.8135745,19.6229075 13.2529685,20.1787512 12.0609462,20.1787512 L9.74709338,20.1787512 L9.74709338,8.64966375 Z M19.4944651,23.7900513 C22.0893939,22.8174013 23.5618738,20.7342888 23.5618738,16.567145 L23.5618738,9.34423875 C23.5618738,3.30131375 20.5461039,0.3156825 14.4452999,0.3156825 L3.09214595e-05,0.3156825 L3.09214595e-05,48.9319513 L14.5856834,48.9319513 C20.6864873,48.9319513 23.7016388,45.9454013 23.7016388,39.9027825 L23.7016388,30.04092 C23.7016388,26.49822 22.4391156,24.6233575 19.4944651,23.7900513 L19.4944651,23.7900513 Z" id="Fill-1" fill="#FFFFFF"></path>
                    <path d="M42.3820965,18.4421912 C42.3820965,19.6230912 41.8211812,20.1786287 40.6291589,20.1786287 L38.3149969,20.1786287 L38.3149969,8.64954125 L40.6291589,8.64954125 C41.8211812,8.64954125 42.3820965,9.205385 42.3820965,10.3856725 L42.3820965,18.4421912 Z M48.0620594,23.7899287 C50.656679,22.817585 52.1294682,20.73386 52.1294682,16.5670225 L52.1294682,9.34381 C52.1294682,3.30180375 49.1140074,0.31525375 43.0132035,0.31525375 L28.5676252,0.31525375 L28.5676252,48.9318287 L38.3149969,48.9318287 L38.3149969,40.597235 L38.3149969,30.6866787 L38.3149969,28.3046662 L40.7695424,28.3046662 C41.9615646,28.3046662 42.5224799,28.8598975 42.5224799,30.0407975 L42.5224799,30.6866787 L42.5224799,38.8611037 L42.5224799,48.9318287 L43.1535869,48.9318287 L52.2695424,48.9318287 L52.2695424,39.9029662 L52.2695424,30.6866787 L52.2695424,30.0407975 C52.2695424,26.4990162 51.0076376,24.6238475 48.0620594,23.7899287 L48.0620594,23.7899287 Z" id="Fill-3" fill="#FFFFFF"></path>
                    <polygon id="Fill-5" fill="#FFFFFF" points="106.776345 0.306464375 85.0379406 0.306464375 85.0379406 8.64075188 90.9986704 8.64075188 90.9986704 48.9227331 100.815925 48.9227331 100.815925 8.64075188 106.776345 8.64075188"></polygon>
                    <path d="M117.366327,32.2544031 L119.426005,8.64099688 L121.485993,32.2544031 L117.366327,32.2544031 Z M113.185127,0.306403125 L106.733055,48.9229781 L115.639363,48.9229781 L116.464348,40.5886906 L122.375294,40.5886906 L123.283148,48.9229781 L133.030519,48.9229781 L126.579066,0.306403125 L113.185127,0.306403125 Z" id="Fill-7" fill="#FFFFFF"></path>
                    <polygon id="Fill-9" fill="#FFFFFF" points="146.66141 40.5885069 146.66141 0.306525625 136.843847 0.306525625 136.843847 48.9231006 153.743661 48.9231006 153.743661 40.5885069"></polygon>
                    <path d="M71.4408782,38.8434025 C71.4408782,40.02369 70.8799629,40.5795337 69.6876314,40.5795337 L68.6359926,40.5795337 C67.4439703,40.5795337 66.8827458,40.02369 66.8827458,38.8434025 L66.8827458,0.31562125 L57.0654917,0.31562125 L57.0654917,39.885265 C57.0654917,45.9275775 60.0809524,48.9138212 66.1817563,48.9138212 L72.1421769,48.9138212 C78.24329,48.9138212 81.2584416,45.9275775 81.2584416,39.885265 L81.2584416,0.31562125 L71.4408782,0.31562125 L71.4408782,38.8434025 Z" id="Fill-11" fill="#FFFFFF"></path>
                    <g id="Group-15" transform="translate(157.390229, 0.238262)">
                        <mask id="mask-2" fill="white">
                            <use xlink:href="#path-1"></use>
                        </mask>
                        <g id="Clip-14"></g>
                        <path d="M1.37733457,27.4023619 L0.577396413,0.298318125 L8.40485467,0.298318125 L7.54771181,27.4023619 L1.37733457,27.4023619 Z M4.63398268,40.3037556 C3.26292517,40.3037556 2.14851577,39.8890931 1.29168213,39.0591556 C0.434230056,38.2295244 0.00627705628,37.2296181 0.00627705628,36.0600494 C0.00627705628,34.8531181 0.434230056,33.8345306 1.29168213,33.0042869 C2.14851577,32.1749619 3.26292517,31.7596869 4.63398268,31.7596869 C5.92804576,31.7596869 7.00473098,32.1749619 7.86187384,33.0042869 C8.71870748,33.8345306 9.14727891,34.8531181 9.14727891,36.0600494 C9.14727891,37.2296181 8.71870748,38.2295244 7.86187384,39.0591556 C7.00473098,39.8890931 5.92804576,40.3037556 4.63398268,40.3037556 L4.63398268,40.3037556 Z" id="Fill-13" fill="#C1FC13" mask="url(#mask-2)"></path>
                    </g>
                </g>
            </g>
        </g>
    </g>
</svg>